<svg xmlns="http://www.w3.org/2000/svg" width="50" height="50" viewBox="0 0 50 50">
  <metadata><?xpacket begin="﻿" id="W5M0MpCehiHzreSzNTczkc9d"?>
<x:xmpmeta xmlns:x="adobe:ns:meta/" x:xmptk="Adobe XMP Core 5.6-c138 79.159824, 2016/09/14-01:09:01        ">
   <rdf:RDF xmlns:rdf="http://www.w3.org/1999/02/22-rdf-syntax-ns#">
      <rdf:Description rdf:about=""/>
   </rdf:RDF>
</x:xmpmeta>

<?xpacket end="w"?></metadata>
<defs>
    <style>
      .cls-1 {
        fill: #111;
        fill-rule: evenodd;
      }
    </style>
  </defs>
  <path class="cls-1" d="M38.52,18.216a3.571,3.571,0,0,0-3.028-2.82A91.66,91.66,0,0,0,25.007,15a91.673,91.673,0,0,0-10.487.4,3.57,3.57,0,0,0-3.026,2.82A31.465,31.465,0,0,0,11,25a31.474,31.474,0,0,0,.488,6.784A3.571,3.571,0,0,0,14.514,34.6,91.66,91.66,0,0,0,25,35a91.644,91.644,0,0,0,10.486-.4,3.572,3.572,0,0,0,3.027-2.819A31.45,31.45,0,0,0,39,25,31.468,31.468,0,0,0,38.52,18.216ZM21.388,29.453v-9.49l8.9,4.759Z"/>
</svg>
