<svg xmlns="http://www.w3.org/2000/svg" width="50" height="50" viewBox="0 0 50 50">
  <metadata><?xpacket begin="﻿" id="W5M0MpCehiHzreSzNTczkc9d"?>
<x:xmpmeta xmlns:x="adobe:ns:meta/" x:xmptk="Adobe XMP Core 5.6-c138 79.159824, 2016/09/14-01:09:01        ">
   <rdf:RDF xmlns:rdf="http://www.w3.org/1999/02/22-rdf-syntax-ns#">
      <rdf:Description rdf:about=""/>
   </rdf:RDF>
</x:xmpmeta>

<?xpacket end="w"?></metadata>
<defs>
    <style>
      .cls-1 {
        fill: #111;
        fill-rule: evenodd;
      }
    </style>
  </defs>
  <path class="cls-1" d="M38,17.492a9.948,9.948,0,0,1-2.95.82,5.117,5.117,0,0,0,2.253-2.92,9.869,9.869,0,0,1-3.252,1.279,5.019,5.019,0,0,0-7.369-.123,5.2,5.2,0,0,0-1.5,3.749,6.068,6.068,0,0,0,.127,1.214,13.9,13.9,0,0,1-5.893-1.633,14.628,14.628,0,0,1-4.672-3.912,5.468,5.468,0,0,0-.079,5.2,5.23,5.23,0,0,0,1.666,1.887,4.951,4.951,0,0,1-2.316-.673v0.066a5.231,5.231,0,0,0,1.166,3.372,5.012,5.012,0,0,0,2.943,1.829,5.1,5.1,0,0,1-1.348.18,6.373,6.373,0,0,1-.968-0.081,5.183,5.183,0,0,0,1.808,2.616A4.892,4.892,0,0,0,20.6,31.421a9.819,9.819,0,0,1-6.361,2.264A10.5,10.5,0,0,1,13,33.619,13.888,13.888,0,0,0,20.868,36a14.509,14.509,0,0,0,5.123-.895,12.919,12.919,0,0,0,4.093-2.4,15.9,15.9,0,0,0,2.927-3.453,15.621,15.621,0,0,0,2.435-8.335c0-.307-0.005-0.536-0.016-0.69A10.926,10.926,0,0,0,38,17.492Z"/>
</svg>
