<svg xmlns="http://www.w3.org/2000/svg" width="50" height="50" viewBox="0 0 50 50">
  <metadata><?xpacket begin="﻿" id="W5M0MpCehiHzreSzNTczkc9d"?>
<x:xmpmeta xmlns:x="adobe:ns:meta/" x:xmptk="Adobe XMP Core 5.6-c138 79.159824, 2016/09/14-01:09:01        ">
   <rdf:RDF xmlns:rdf="http://www.w3.org/1999/02/22-rdf-syntax-ns#">
      <rdf:Description rdf:about=""/>
   </rdf:RDF>
</x:xmpmeta>

<?xpacket end="w"?></metadata>
<defs>
    <style>
      .cls-1 {
        fill: #111;
        fill-rule: evenodd;
      }
    </style>
  </defs>
  <path class="cls-1" d="M17.969,35a2.969,2.969,0,0,0,0-5.937A2.969,2.969,0,1,0,17.969,35Zm6.484-.585c0,0.2-.017.392-0.03,0.585h3.516c0.009-.195.03-0.388,0.03-0.585A12.453,12.453,0,0,0,15.586,22.029c-0.2,0-.39.021-0.586,0.03v3.515c0.194-.013.388-0.03,0.586-0.03A8.933,8.933,0,0,1,24.453,34.412ZM15.586,15c-0.2,0-.389.024-0.586,0.03v3.516c0.2-.007.388-0.03,0.586-0.03a15.973,15.973,0,0,1,15.9,15.9c0,0.2-.022.389-0.03,0.585H34.97c0.006-.2.03-0.387,0.03-0.585A19.47,19.47,0,0,0,15.586,15Z"/>
</svg>
